<svg xmlns="http://www.w3.org/2000/svg" viewBox="0 0 543.15 543.15">
  <defs>
    <style>.cls-1{fill:none;stroke:#fff;stroke-linecap:round;stroke-linejoin:round;stroke-width:72px;}</style>
  </defs>
  <g id="Ebene_2" data-name="Ebene 2">
    <g id="Ebene_1-2" data-name="Ebene 1">
      <path d="M271.58,540.65a269.36,269.36,0,1,1,92.69-16.55,268.23,268.23,0,0,1-92.69,16.55Z" />
      <path d="M271.56,5a267.62,267.62,0,1,1-91.82,16.4A265.69,265.69,0,0,1,271.56,5h0m0-5A271.22,271.22,0,0,0,178,16.7h0C37.25,68.38-35,224.37,16.7,365.13h0C57.05,475,161,543.15,271.6,543.15a270.94,270.94,0,0,0,93.53-16.71h0C505.9,474.77,578.12,318.77,526.44,178h0C486.1,68.11,382.18,0,271.55,0Z" />
      <polyline class="cls-1" points="196.73 423.32 198.68 174.23 336.67 371.95 346.42 120" />
    </g>
  </g>
</svg>